<svg xmlns="http://www.w3.org/2000/svg" xmlns:xlink="http://www.w3.org/1999/xlink" width="40" height="40" viewBox="0 0 40 40">
  <defs>
    <clipPath id="clip-path">
      <rect id="矩形_5230" data-name="矩形 5230" width="20" height="20" transform="translate(299 299)" fill="#fff"/>
    </clipPath>
  </defs>
  <g id="daikuai" transform="translate(-313 -286)">
    <g id="组_862" data-name="组 862" transform="translate(0 -5)">
      <circle id="椭圆_1678" data-name="椭圆 1678" cx="20" cy="20" r="20" transform="translate(313 291)" fill="#3c6cd6"/>
      <g id="组_861" data-name="组 861" transform="translate(24 2)" clip-path="url(#clip-path)">
        <path id="路径_3330" data-name="路径 3330" d="M149,109.5l1.67,3.371L149,114.528l-1.67-1.656Zm0-14.973a6.517,6.517,0,0,1,4.069,11.657l-.035-.018A8.919,8.919,0,0,1,158,114v.147h-5.768a.772.772,0,0,1-.772-.71v-.058a.765.765,0,0,1,.24-.556.778.778,0,0,1,.571-.211H156.2a7.338,7.338,0,0,0-4.954-5.421,6.661,6.661,0,0,1-4.493,0h-.01a7.339,7.339,0,0,0-4.944,5.418h3.946a.769.769,0,0,1,0,1.533H140a8.918,8.918,0,0,1,4.931-7.964A6.516,6.516,0,0,1,149,94.529Zm1.2,13.369-1.2,1.426-1.2-1.426,1.2.3ZM149,96.064a4.991,4.991,0,1,0,5.032,4.991A4.991,4.991,0,0,0,149,96.064Z" transform="translate(160 204.472)" fill="#fff"/>
      </g>
    </g>
  </g>
</svg>
