<svg xmlns="http://www.w3.org/2000/svg" width="40" height="40" viewBox="0 0 40 40">
  <g id="huazhuan" transform="translate(-313 -276)">
    <circle id="椭圆_1689" data-name="椭圆 1689" cx="20" cy="20" r="20" transform="translate(313 276)" fill="#3c6cd6"/>
    <path id="路径_3387" data-name="路径 3387" d="M21.616,25.7l.046.05,3.168,4.212a.5.5,0,0,1-.512.791l-.077-.025-2.061-.854a8.367,8.367,0,0,0,3.768,7.587,8.283,8.283,0,0,0,8.962.064l.116-.075a.829.829,0,0,1,1.155.226.838.838,0,0,1-.225,1.16l-.01.007a9.938,9.938,0,0,1-10.9.02A10.05,10.05,0,0,1,20.63,28.84h0l.439-2.939a.335.335,0,0,1,.081-.173l.047-.044a.331.331,0,0,1,.42.016Zm9.035-1.056a.737.737,0,0,1,.736.739V26.3a2.631,2.631,0,0,1,1.879,2.523.736.736,0,0,1-1.472,0,1.148,1.148,0,0,0-1.136-1.15h-.017l-.1,0a1.151,1.151,0,0,0,.11,2.294,2.63,2.63,0,0,1,.737,5.15v1.11a.736.736,0,1,1-1.472,0v-1.11a2.631,2.631,0,0,1-1.88-2.522.736.736,0,0,1,1.472,0,1.143,1.143,0,1,0,1.143-1.15,2.63,2.63,0,0,1-.736-5.15v-.916a.738.738,0,0,1,.736-.739Zm5.3-2.545A10.05,10.05,0,0,1,40.37,32.124h0l-.439,2.938a.335.335,0,0,1-.081.173l-.047.044a.331.331,0,0,1-.42-.015l-.047-.05L36.166,31a.5.5,0,0,1,.512-.791l.077.025,2.061.854A8.367,8.367,0,0,0,35.048,23.5a8.283,8.283,0,0,0-8.962-.064l-.116.075a.829.829,0,0,1-1.155-.225.838.838,0,0,1,.224-1.16l.01-.007h0a9.941,9.941,0,0,1,10.9-.019Z" transform="translate(302.502 265.517)" fill="#fff"/>
  </g>
</svg>
