<svg xmlns="http://www.w3.org/2000/svg" xmlns:xlink="http://www.w3.org/1999/xlink" width="40" height="40" viewBox="0 0 40 40" fill="none"><g opacity="1"  transform="translate(0 0)  rotate(0)"><path id="椭圆 1708" fill-rule="evenodd" style="fill:#3C6CD6" opacity="1" d="M20 0C8.95 0 0 8.95 0 20C0 31.05 8.95 40 20 40C31.05 40 40 31.05 40 20C40 8.95 31.05 0 20 0Z"></path><path id="路径 3642" fill-rule="evenodd" style="fill:#FFFFFF" opacity="1" d="M19.9385 10ZM11.6585 15.96C10.5985 17.02 9.99854 18.45 9.99854 19.95C9.99854 21.45 10.5985 22.88 11.6585 23.94L15.9785 28.26C17.0285 29.32 18.4685 29.91 19.9585 29.9C21.4485 29.9 22.8785 29.31 23.9385 28.26L28.2585 23.94C30.4485 21.74 30.4485 18.18 28.2585 15.98L23.9185 11.64C22.8585 10.59 21.4285 10 19.9385 10C18.4485 10 17.0185 10.59 15.9585 11.64L11.6585 15.96Z"></path><path id="路径 3644" fill-rule="evenodd" style="fill:#3C6CD6" opacity="1" d="M23.3006 15.082C22.3306 15.242 22.1706 15.572 21.1506 15.572C20.7106 15.562 20.2606 15.522 19.8206 15.452C19.4506 15.392 19.0906 15.362 18.7206 15.372C17.9706 15.362 17.2306 15.472 16.5106 15.712C16.9106 16.212 17.1806 16.792 17.3206 17.412C15.9206 18.622 15.4406 20.592 16.1306 22.312C16.8106 24.032 18.5106 25.142 20.3606 25.062C22.2106 24.982 23.8106 23.752 24.3506 21.972C24.8906 20.202 24.2506 18.282 22.7506 17.192C23.1606 16.362 23.7306 15.082 23.3406 15.082L23.3006 15.082ZM18.3789 16.5654C18.4789 16.8354 18.5389 17.1254 18.5389 17.4154L18.5389 17.9654L18.1389 18.3254C17.0389 19.2854 16.7489 20.8554 17.4189 22.1454C18.0889 23.4354 19.5489 24.0954 20.9589 23.7454C22.3589 23.3954 23.3489 22.1254 23.3389 20.6754C23.3389 19.6754 22.8589 18.7454 22.0389 18.1654L21.2089 17.5554L21.6189 16.7454C21.4589 16.7654 21.3089 16.7754 21.1489 16.7654Q20.3989 16.7504 19.6489 16.6454C19.3489 16.6054 19.0489 16.5854 18.7389 16.5854C18.6189 16.5854 18.4989 16.5854 18.3789 16.5654Z"></path><path id="路径 3643" fill-rule="evenodd" style="fill:#3C6CD6" opacity="1" d="M20.1929 22.482C21.1429 22.482 21.9129 21.712 21.9129 20.762C21.9129 20.312 21.7329 19.872 21.4129 19.542C21.0929 19.222 20.6529 19.042 20.1929 19.042C19.2429 19.042 18.4729 19.812 18.4729 20.762C18.4729 21.712 19.2429 22.482 20.1929 22.482ZM21.0049 20.7651L20.1949 19.9551L19.3849 20.7651L20.1949 21.5751L21.0049 20.7651Z"></path></g></svg>