<svg xmlns="http://www.w3.org/2000/svg" width="40" height="40" viewBox="0 0 40 40">
  <g id="zhenzhi" transform="translate(-74 -230)">
    <circle id="椭圆_1710" data-name="椭圆 1710" cx="20" cy="20" r="20" transform="translate(74 230)" fill="#3c6cd6"/>
    <path id="路径_3678" data-name="路径 3678" d="M86.2,128h16.2a.9.9,0,0,1,.9.889V143.11a.9.9,0,0,1-.9.889H86.2a.9.9,0,0,1-.9-.889V128.889a.9.9,0,0,1,.9-.889Z" transform="translate(-0.3 114)" fill="#fff"/>
    <path id="路径_3679" data-name="路径 3679" d="M106.5,190.993l4.654-4.819a.44.44,0,1,0-.633-.611l-4.044,4.187-2.03-1.961-4.227,4.377a.44.44,0,1,0,.633.611l3.616-3.745,2.03,1.961Z" transform="translate(-11.601 60.83)" fill="#3c6cd6" stroke="#3c6cd6" stroke-width="0.5"/>
  </g>
</svg>
