<svg xmlns="http://www.w3.org/2000/svg" width="24" height="24" viewBox="0 0 24 24">
  <g id="jilu" transform="translate(-336 -19)">
    <circle id="椭圆_1692" data-name="椭圆 1692" cx="12" cy="12" r="12" transform="translate(336 19)" fill="#e2ebff"/>
    <g id="组_881" data-name="组 881" transform="translate(310 18.24)">
      <path id="路径_3580" data-name="路径 3580" d="M238.87,15.673H233.2a.469.469,0,0,1,0-.928h5.67a.469.469,0,0,1,0,.928m0,2.654H233.2a.469.469,0,0,1,0-.928h5.67a.469.469,0,0,1,0,.928m0,2.653H233.2a.469.469,0,0,1,0-.928h5.67a.47.47,0,0,1,0,.929m-1.535-9.812h-2.6a.469.469,0,0,1,0-.928h2.6a.469.469,0,0,1,0,.928" transform="translate(-198.035 -4.418)" fill="#3c6cd6"/>
      <path id="路径_3581" data-name="路径 3581" d="M33.334,6.689a.5.5,0,0,0-.48.521v11.1a.5.5,0,0,0,.48.522h9.332a.5.5,0,0,0,.479-.522V7.209a.5.5,0,0,0-.479-.521H41.421a1.679,1.679,0,0,1-1.61,1.6H36.189a1.677,1.677,0,0,1-1.611-1.6ZM42.666,19.76H33.334A1.4,1.4,0,0,1,32,18.311V7.209A1.4,1.4,0,0,1,33.334,5.76h2.092v.769a.8.8,0,0,0,.764.828h3.621a.8.8,0,0,0,.763-.828V5.76h2.092A1.4,1.4,0,0,1,44,7.209v11.1a1.4,1.4,0,0,1-1.334,1.451Z" fill="#3c6cd6"/>
    </g>
  </g>
</svg>
