<svg xmlns="http://www.w3.org/2000/svg" width="24" height="24" viewBox="0 0 24 24">
  <g id="k-xian" transform="translate(-268 -83)">
    <circle id="椭圆_1693" data-name="椭圆 1693" cx="12" cy="12" r="12" transform="translate(268 83)" fill="#e2ebff"/>
    <g id="组_882" data-name="组 882" transform="translate(1414 -393)">
      <path id="路径_3582" data-name="路径 3582" d="M-1131,494.5V492h-1.5a.5.5,0,0,1-.5-.5v-8a.5.5,0,0,1,.5-.5h1.5v-1.5a.5.5,0,0,1,.5-.5.5.5,0,0,1,.5.5V483h1.5a.5.5,0,0,1,.5.5v8a.5.5,0,0,1-.5.5h-1.5v2.5a.5.5,0,0,1-.5.5A.5.5,0,0,1-1131,494.5Zm-7-.5v-1.5h-1.5a.5.5,0,0,1-.5-.5v-6a.5.5,0,0,1,.5-.5h1.5V482a.5.5,0,0,1,.5-.5.5.5,0,0,1,.5.5v3.5h1.5a.5.5,0,0,1,.5.5v6a.5.5,0,0,1-.5.5h-1.5V494a.5.5,0,0,1-.5.5A.5.5,0,0,1-1138,494Z" fill="none"/>
      <path id="路径_3583" data-name="路径 3583" d="M-1136,491.5v-5h-3v5h3m7-.5v-7h-3v7h3m-1.5,4a.5.5,0,0,1-.5-.5V492h-1.5a.5.5,0,0,1-.5-.5v-8a.5.5,0,0,1,.5-.5h1.5v-1.5a.5.5,0,0,1,.5-.5.5.5,0,0,1,.5.5V483h1.5a.5.5,0,0,1,.5.5v8a.5.5,0,0,1-.5.5h-1.5v2.5A.5.5,0,0,1-1130.5,495Zm-7-.5a.5.5,0,0,1-.5-.5v-1.5h-1.5a.5.5,0,0,1-.5-.5v-6a.5.5,0,0,1,.5-.5h1.5V482a.5.5,0,0,1,.5-.5.5.5,0,0,1,.5.5v3.5h1.5a.5.5,0,0,1,.5.5v6a.5.5,0,0,1-.5.5h-1.5V494A.5.5,0,0,1-1137.5,494.5Z" fill="#3c6cd6"/>
    </g>
  </g>
</svg>
