<svg xmlns="http://www.w3.org/2000/svg" width="24" height="24" viewBox="0 0 24 24">
  <g id="sousuo" transform="translate(-292 -17)">
    <circle id="椭圆_1703" data-name="椭圆 1703" cx="12" cy="12" r="12" transform="translate(292 17)" fill="#e2ebff"/>
    <g id="组_898" data-name="组 898" transform="translate(-4218 -3983)">
      <path id="路径_3635" data-name="路径 3635" d="M4527.736,4018.784l-2.373-2.365a6.381,6.381,0,1,1,1.052-1.037l2.368,2.359a.739.739,0,0,1-1.047,1.042Z" fill="none"/>
      <path id="路径_3636" data-name="路径 3636" d="M4521.411,4016.277a4.875,4.875,0,0,0,3.029-1.04l.451-.352.356-.443a4.819,4.819,0,0,0,1.075-3.053,4.911,4.911,0,1,0-4.911,4.888m6.849,2.723a.741.741,0,0,1-.524-.216l-2.373-2.365a6.381,6.381,0,1,1,1.052-1.037l2.368,2.359a.737.737,0,0,1-.523,1.259Z" fill="#3c6cd6"/>
    </g>
  </g>
</svg>
