<svg xmlns="http://www.w3.org/2000/svg" xmlns:xlink="http://www.w3.org/1999/xlink" width="16" height="14" viewBox="0 0 16 14">
  <defs>
    <clipPath id="clip-path">
      <rect id="矩形_5285" data-name="矩形 5285" width="16" height="14" transform="translate(59 83)" fill="#fff"/>
    </clipPath>
  </defs>
  <g id="yanjin-k" transform="translate(-59 -83)" clip-path="url(#clip-path)">
    <g id="组_906" data-name="组 906" transform="translate(-26.315 -129.333)">
      <path id="路径_3672" data-name="路径 3672" d="M101.21,218.858c-1.738-3.675-4.368-5.525-7.894-5.525s-6.154,1.85-7.894,5.527a1.113,1.113,0,0,0,0,.948c1.74,3.675,4.37,5.525,7.894,5.525s6.154-1.85,7.894-5.527a1.112,1.112,0,0,0,0-.948Zm-7.894,5.15c-2.96,0-5.127-1.506-6.656-4.675,1.53-3.17,3.7-4.676,6.656-4.676s5.127,1.506,6.656,4.675c-1.528,3.17-3.694,4.675-6.656,4.675Z" fill="#838b9c"/>
      <path id="路径_3673" data-name="路径 3673" d="M339.023,360.107a3.261,3.261,0,1,0,3.214,3.261,3.261,3.261,0,0,0-3.214-3.261Zm0,5.335a2.075,2.075,0,1,1,2.046-2.075A2.075,2.075,0,0,1,339.023,365.442Z" transform="translate(-245.781 -144.035)" fill="#838b9c"/>
    </g>
  </g>
</svg>
