<svg xmlns="http://www.w3.org/2000/svg" width="19.999" height="20" viewBox="0 0 19.999 20">
  <g id="tuichu" transform="translate(-345 -24)">
    <path id="路径_3657" data-name="路径 3657" d="M37.406,6.607H30.021v2h7.385v3.007l5.275-4.009L37.406,3.6Z" transform="translate(322.318 26.402)" fill="#3c6cd6"/>
    <path id="路径_3658" data-name="路径 3658" d="M15.723,20H.5a.5.5,0,0,1-.5-.5V.5A.5.5,0,0,1,.5,0H15.723a.5.5,0,0,1,.5.5V4H14.6V1.667H1.622V18.333H14.6V16h1.622v3.5a.5.5,0,0,1-.5.5Z" transform="translate(345 24)" fill="#3c6cd6"/>
  </g>
</svg>
