<svg xmlns="http://www.w3.org/2000/svg" xmlns:xlink="http://www.w3.org/1999/xlink" width="24" height="24" viewBox="0 0 24 24">
  <defs>
    <clipPath id="clip-path">
      <rect id="矩形_5252" data-name="矩形 5252" width="24" height="24" transform="translate(27 544)" fill="#fff"/>
    </clipPath>
  </defs>
  <g id="mengbanzu13" transform="translate(-27 -544)" clip-path="url(#clip-path)">
    <g id="组_885" data-name="组 885" transform="translate(-47.41 470.9)">
      <path id="路径_3588" data-name="路径 3588" d="M86.407,96.574l-.34-.136a18.553,18.553,0,0,1-11.424-20.15l.139-.855.861.088a17.161,17.161,0,0,0,1.732.087,16.624,16.624,0,0,0,8.351-2.239l.462-.269.462.269a16.612,16.612,0,0,0,8.344,2.239,15.45,15.45,0,0,0,2.138-.144l.888-.125.146.884A18.539,18.539,0,0,1,86.747,96.438ZM76.343,77.418a16.866,16.866,0,0,0-.1,1.8A16.61,16.61,0,0,0,86.4,94.588a16.7,16.7,0,0,0,10.069-17.2c-.483.04-.977.06-1.478.06a18.537,18.537,0,0,1-4.877-.649,18.333,18.333,0,0,1-3.929-1.579A18.314,18.314,0,0,1,82.256,76.8a18.567,18.567,0,0,1-4.882.649C77.03,77.445,76.686,77.436,76.343,77.418Z"/>
      <path id="路径_3589" data-name="路径 3589" d="M424.185,324.441H421.7l.431-5.681h5.028Z" transform="translate(-337.752 -238.913)" fill="#3c6cd6"/>
      <path id="路径_3590" data-name="路径 3590" d="M479.51,516.611l.914-5.681h3.739Z" transform="translate(-393.974 -425.805)" fill="#3c6cd6"/>
    </g>
  </g>
</svg>
