<svg xmlns="http://www.w3.org/2000/svg" width="24" height="24" viewBox="0 0 24 24">
  <g id="zu29" transform="translate(-112.356 -112.355)">
    <path id="路径_3690" data-name="路径 3690" d="M136.356,112.355h-24v7.377h3.882v16.623H132.47V119.732h3.882v-7.377Zm-5.435,22.451h-13.13V117.014h13.126V134.8ZM134.8,118.18h-2.329v-1.165h.776v-1.553H115.462v1.553h.776v1.165h-2.329v-4.271H134.8v4.271Z"/>
    <path id="路径_3691" data-name="路径 3691" d="M348.576,430.9l7.983-7.983,1.1,1.1L349.677,432Zm7.139-3.18a2.336,2.336,0,1,0,2.336,2.336,2.336,2.336,0,0,0-2.336-2.336Zm0,3.114a.779.779,0,1,1,.779-.779.779.779,0,0,1-.779.779Zm-5.193-3.636a2.336,2.336,0,1,0-2.336-2.336,2.336,2.336,0,0,0,2.336,2.336Zm0-3.114a.779.779,0,1,1-.779.779.779.779,0,0,1,.779-.779Z" transform="translate(-228.763 -300.876)" fill="#3c6cd6"/>
  </g>
</svg>
